<svg width="13" height="37" viewBox="0 0 13 37" fill="none" xmlns="http://www.w3.org/2000/svg">
<path fill-rule="evenodd" clip-rule="evenodd" d="M5.83386 0.759464C5.83386 1.32085 6.05842 1.78057 6.33288 1.78057C6.60734 1.78057 6.8319 1.45921 6.8319 1.06594C6.8319 0.672678 6.60734 0.213455 6.33288 0.0448414C6.05842 -0.123772 5.83386 0.198081 5.83386 0.759464ZM5.66769 3.59911C5.48455 3.78062 5.33485 6.72639 5.33485 10.1453C5.33485 18.0711 6.21262 17.6188 6.39027 9.60125C6.51452 3.99486 6.38129 2.88945 5.66769 3.59911ZM7.2366 9.02201C7.0864 14.5986 7.35187 16.6275 8.01008 14.9235C8.51608 13.6128 8.38334 3.26833 7.86037 3.26833C7.60238 3.26833 7.32144 5.85754 7.2366 9.02201ZM4.19359 18.4539C3.99798 18.6483 3.83779 19.4666 3.83779 20.273C3.83779 21.5197 3.72601 21.6467 3.08927 21.1215C2.67758 20.7818 2.34074 20.085 2.34074 19.5732C2.34074 18.9558 1.98494 18.6419 1.28632 18.6419C0.296267 18.6419 0.244868 18.8462 0.444974 21.9894C0.61464 24.6629 1.1416 26.3857 3.06182 30.544C4.38422 33.408 5.63575 35.9377 5.84285 36.1663C6.04994 36.3944 7.62933 33.955 9.35194 30.7449C12.1659 25.503 12.4888 24.6029 12.5277 21.8996C12.5661 19.2063 12.4658 18.8899 11.5726 18.8899C10.9957 18.8899 10.6344 19.1735 10.7167 19.5618C10.7951 19.9318 10.5705 20.5814 10.2177 21.0065C9.66432 21.673 9.54256 21.5475 9.32699 20.0865C9.08895 18.4733 8.97119 18.387 6.81344 18.2471C5.56789 18.1663 4.38921 18.2595 4.19359 18.4539ZM5.61779 22.1466C5.63625 23.2103 5.53196 23.9626 5.38674 23.8178C5.24103 23.6735 5.1043 22.6822 5.08284 21.6149C5.06088 20.5477 5.16518 19.7954 5.31389 19.9437C5.46259 20.0915 5.59933 21.0828 5.61779 22.1466ZM8.32895 21.5182C8.32895 22.5547 8.06347 23.6671 7.73861 23.9894C7.41375 24.3123 7.32393 24.7477 7.53951 24.9565C7.75458 25.1657 8.80601 24.3326 9.87541 23.1052C11.7218 20.9856 11.8196 20.938 11.8206 22.1575C11.8221 23.3968 7.15377 33.5195 6.58089 33.5195C6.4257 33.5195 6.40025 32.9061 6.5245 32.1558C6.64826 31.4054 6.76852 28.2816 6.79098 25.2129C6.82491 20.6023 6.96164 19.6337 7.58042 19.6337C8.11437 19.6337 8.32895 20.1738 8.32895 21.5182ZM5.4077 25.3468C5.55092 25.2049 5.66769 25.4276 5.66769 25.8417C5.66769 26.4189 5.39623 26.3411 4.50298 25.5069C3.02789 24.1298 2.971 24.8841 4.43412 26.4313C5.70761 27.7788 6.20912 29.4872 5.05091 28.5321C4.66417 28.2127 4.49051 27.6984 4.66517 27.3885C4.86128 27.0398 4.73004 27.0567 4.32184 27.4326C3.77791 27.934 3.82632 28.2216 4.5973 29.0681C5.75851 30.3432 6.1203 31.8934 5.05091 31.0117C4.66417 30.6923 4.46107 30.2489 4.59979 30.0263C4.73852 29.8031 4.62025 29.4783 4.33731 29.3047C3.58729 28.8435 2.19303 25.6666 1.63264 23.1394C1.38762 22.035 1.52385 22.0881 3.25694 23.7692C4.29689 24.7789 5.26498 25.4891 5.4077 25.3468ZM3.08927 26.0807C3.58579 26.6262 4.10477 27.0726 4.242 27.0726C4.37923 27.0726 4.08481 26.6262 3.58828 26.0807C3.09176 25.5352 2.57278 25.0889 2.43555 25.0889C2.29832 25.0889 2.59275 25.5352 3.08927 26.0807Z" fill="black"/>
</svg>
