<svg width="24" height="44" viewBox="0 0 24 44" fill="none" xmlns="http://www.w3.org/2000/svg">
<path d="M12.5523 21.5097C12.5523 20.618 12.8588 19.8107 13.3334 19.4525L22.1702 12.783C23.0328 12.132 24 13.2194 24 14.8403V34.281C24 35.1376 23.7169 35.9196 23.2701 36.2973L14.4333 43.767C13.5659 44.5003 12.5523 43.4138 12.5523 41.7508V21.5097Z" fill="#1985A1" fill-opacity="0.4"/>
<path d="M11.4477 21.5097C11.4477 20.618 11.1412 19.8107 10.6666 19.4525L1.82978 12.783C0.967169 12.132 0 13.2194 0 14.8403V34.281C0 35.1376 0.283084 35.9196 0.729866 36.2973L9.56668 43.767C10.4341 44.5003 11.4477 43.4138 11.4477 41.7508V21.5097Z" fill="#1985A1" fill-opacity="0.4"/>
<path d="M11.6066 0.162408C11.905 -0.0537074 12.2413 -0.054152 12.5399 0.161175L22.2413 7.15793C23.2137 7.85927 23.2307 10.2197 22.2687 10.9623L12.5674 18.4509C12.253 18.6935 11.8933 18.693 11.5792 18.4495L1.91947 10.9609C0.959766 10.2169 0.976785 7.86182 1.94694 7.15912L11.6066 0.162408Z" fill="#1985A1" fill-opacity="0.4"/>
</svg>
