<svg width="24" height="25" viewBox="0 0 24 25" fill="none" xmlns="http://www.w3.org/2000/svg">
    <path d="M12.5523 12.2214C12.5523 11.7148 12.8588 11.2561 13.3334 11.0525L22.1702 7.26309C23.0328 6.89318 24 7.51101 24 8.43197V19.4778C24 19.9645 23.7169 20.4089 23.2701 20.6234L14.4333 24.8676C13.5659 25.2842 12.5523 24.6669 12.5523 23.722V12.2214Z" fill="#1985A1" fill-opacity="0.4"/>
    <path d="M11.4477 12.2214C11.4477 11.7148 11.1412 11.2561 10.6666 11.0525L1.82978 7.26309C0.967169 6.89318 0 7.51101 0 8.43197V19.4778C0 19.9645 0.283084 20.4089 0.729866 20.6234L9.56668 24.8676C10.4341 25.2842 11.4477 24.6669 11.4477 23.722V12.2214Z" fill="#1985A1" fill-opacity="0.4"/>
    <path d="M11.6066 0.0922774C11.905 -0.0305156 12.2413 -0.0307682 12.5399 0.0915766L22.2413 4.06701C23.2137 4.46549 23.2307 5.80664 22.2687 6.22858L12.5674 10.4835C12.253 10.6213 11.8933 10.621 11.5792 10.4827L1.91947 6.22777C0.959766 5.80505 0.976785 4.46694 1.94694 4.06768L11.6066 0.0922774Z" fill="#1985A1" fill-opacity="0.4"/>
    </svg>
