<svg width="20" height="19" viewBox="0 0 20 19" fill="none" xmlns="http://www.w3.org/2000/svg">
<path d="M10.0006 0.000608738C4.4759 0.000608738 0 4.36349 0 9.74053C0 14.0462 2.86518 17.6956 6.83605 18.9831C7.33796 19.075 7.51922 18.7737 7.51922 18.5132C7.51922 18.2818 7.5136 17.67 7.50984 16.858C4.72655 17.4448 4.14026 15.5486 4.14026 15.5486C3.68461 14.426 3.02706 14.1247 3.02706 14.1247C2.12201 13.5227 3.09894 13.5355 3.09894 13.5355C4.10151 13.6018 4.62904 14.5368 4.62904 14.5368C5.52097 16.027 6.96919 15.5961 7.54235 15.3453C7.62985 14.7176 7.89049 14.286 8.17426 14.0456C5.95412 13.8015 3.6196 12.9644 3.6196 9.23223C3.6196 8.16632 4.00713 7.29825 4.64779 6.61645C4.53716 6.37235 4.19839 5.38009 4.73592 4.03842C4.73592 4.03842 5.57285 3.77848 7.48609 5.03737C8.30109 4.82148 9.14166 4.71076 9.98625 4.70804C10.8363 4.71351 11.6857 4.82187 12.4864 5.03737C14.3884 3.77848 15.2247 4.03842 15.2247 4.03842C15.7616 5.38009 15.4228 6.37174 15.3253 6.61645C15.9597 7.29825 16.3473 8.16693 16.3473 9.23223C16.3473 12.973 14.0096 13.7978 11.787 14.0358C12.1345 14.3274 12.4602 14.927 12.4602 15.8371C12.4602 17.1398 12.4477 18.1893 12.4477 18.5065C12.4477 18.7597 12.6227 19.0641 13.1377 18.9661C17.1379 17.692 20 14.0395 20 9.73993C20 4.36288 15.5241 0 9.99938 0L10.0006 0.000608738Z" fill="#4F4F4F"/>
</svg>
