<svg width="25" height="45" viewBox="0 0 25 45" fill="none" xmlns="http://www.w3.org/2000/svg">
<path d="M13.0753 21.9986C13.0753 21.0865 13.3946 20.2609 13.889 19.8946L23.094 13.0736C23.9925 12.4077 25 13.5198 25 15.1775V35.0601C25 35.9362 24.7051 36.736 24.2397 37.1222L15.0347 44.7617C14.1311 45.5116 13.0753 44.4005 13.0753 42.6997V21.9986Z" fill="#8492A4"/>
<path d="M11.9247 21.9986C11.9247 21.0865 11.6054 20.2609 11.111 19.8946L1.90603 13.0736C1.00747 12.4077 0 13.5198 0 15.1775V35.0601C0 35.9362 0.294879 36.736 0.760277 37.1222L9.9653 44.7617C10.8689 45.5116 11.9247 44.4005 11.9247 42.6997V21.9986Z" fill="#8492A4"/>
<path d="M12.0902 0.166099C12.401 -0.054928 12.7514 -0.0553827 13.0624 0.164838L23.168 7.32061C24.1809 8.03789 24.1987 10.4519 23.1965 11.2114L13.091 18.8702C12.7635 19.1184 12.3889 19.1179 12.0617 18.8688L1.99944 11.21C0.999756 10.4491 1.01748 8.0405 2.02806 7.32183L12.0902 0.166099Z" fill="#8492A4"/>
</svg>
