<svg width="14" height="17" viewBox="0 0 14 17" fill="none" xmlns="http://www.w3.org/2000/svg">
<path d="M2.67233 0C1.2037 0 0.000807931 1.14963 0.000807931 2.57125C-0.0013236 6.4855 0.00151844 10.705 0.000807931 14.4309C0.000807931 15.8518 1.2037 17 2.67233 17C4.14095 17 5.34527 15.8525 5.34527 14.4309V12.2556L6.75492 12.2542L9.33408 15.7817C9.81225 16.4362 10.5746 16.7868 11.3491 16.7868C11.8365 16.7868 12.3282 16.648 12.758 16.3597C13.8693 15.6131 14.1385 14.1426 13.3591 13.0765L11.7093 10.817C13.109 9.68858 14 7.99992 14 6.12708C14 2.74621 11.1317 0 7.61961 0L2.67233 0ZM3.68125 0.427125H7.61961C10.9093 0.427125 13.5737 2.98633 13.5737 6.12708C13.5737 7.85825 12.7523 9.42225 11.4564 10.4734L10.2854 8.87046C11.0514 8.18337 11.5416 7.21437 11.5416 6.12708C11.5416 4.04317 9.77957 2.35733 7.61961 2.35733H5.12288C5.08731 1.94687 4.94071 1.55371 4.6987 1.21975C4.43794 0.868264 4.08626 0.594045 3.68125 0.426417V0.427125ZM5.12146 2.78375H7.61961C9.55718 2.78375 11.1146 4.28188 11.1146 6.12637C11.1146 7.072 10.6968 7.91846 10.0361 8.52762L9.88614 8.32221C9.50945 7.81189 8.9493 7.46667 8.32302 7.35887C8.7749 7.11804 9.08398 6.65621 9.08398 6.12637C9.08398 5.34508 8.42107 4.71396 7.61961 4.71396H4.91825V7.54163L6.84089 7.54021C6.45318 7.70528 6.11765 7.9721 5.87003 8.31226C5.62242 8.65242 5.472 9.05318 5.43479 9.47183L2.88619 9.47467V4.90875C3.31738 4.87947 3.73357 4.73913 4.09406 4.50146C4.3567 4.32867 4.58172 4.10489 4.75568 3.84347C4.92964 3.58206 5.04897 3.28837 5.10654 2.97996C5.11862 2.91479 5.11506 2.84962 5.12075 2.78446L5.12146 2.78375ZM0.427825 3.51262C0.493192 3.655 0.572769 3.79171 0.667977 3.92204C1.09855 4.51208 1.7643 4.845 2.45989 4.90662V14.4309C2.44568 14.7284 2.9004 14.7284 2.88619 14.4309V9.90108L5.43693 9.89825C5.47529 10.2914 5.60603 10.6817 5.85897 11.028L6.44443 11.8285L4.91825 11.8299V14.4309C4.91825 15.6131 3.91927 16.5743 2.67233 16.5743C1.42609 16.5743 0.427114 15.6131 0.427114 14.4309C0.425693 10.8014 0.427114 6.85171 0.427114 3.51262H0.427825ZM5.34456 5.14037H7.61961C8.19797 5.14037 8.65625 5.58592 8.65625 6.12708C8.65625 6.64062 8.23847 7.07625 7.69209 7.11167C7.66701 7.11321 7.64189 7.11392 7.61677 7.11379L5.34527 7.11521L5.34456 5.14037Z" fill="#4F4F4F"/>
</svg>
