<svg width="28" height="28" viewBox="0 0 28 28" fill="none"
    xmlns="http://www.w3.org/2000/svg">
    <path d="M13.9883 2.33334C7.54831 2.33334 2.33331 7.56001 2.33331 14C2.33331 20.44 7.54831 25.6667 13.9883 25.6667C20.44 25.6667 25.6666 20.44 25.6666 14C25.6666 7.56001 20.44 2.33334 13.9883 2.33334ZM14 23.3333C8.84331 23.3333 4.66665 19.1567 4.66665 14C4.66665 8.84334 8.84331 4.66668 14 4.66668C19.1566 4.66668 23.3333 8.84334 23.3333 14C23.3333 19.1567 19.1566 23.3333 14 23.3333Z" fill="#1985A1" fill-opacity="0.4"/>
    <path d="M14.5833 8.16666H12.8333V15.1667L18.9583 18.8417L19.8333 17.4067L14.5833 14.2917V8.16666Z" fill="#1985A1" fill-opacity="0.4"/>
</svg>
