<svg width="40" height="40" viewBox="0 0 40 40" fill="none" xmlns="http://www.w3.org/2000/svg">
<path d="M19.9833 3.33331C10.7833 3.33331 3.33325 10.8 3.33325 20C3.33325 29.2 10.7833 36.6667 19.9833 36.6667C29.1999 36.6667 36.6666 29.2 36.6666 20C36.6666 10.8 29.1999 3.33331 19.9833 3.33331ZM19.9999 33.3333C12.6333 33.3333 6.66659 27.3667 6.66659 20C6.66659 12.6333 12.6333 6.66665 19.9999 6.66665C27.3666 6.66665 33.3333 12.6333 33.3333 20C33.3333 27.3667 27.3666 33.3333 19.9999 33.3333Z" fill="#1985A1" fill-opacity="0.4"/>
<path d="M20.8333 11.6667H18.3333V21.6667L27.0832 26.9167L28.3332 24.8667L20.8333 20.4167V11.6667Z" fill="#1985A1" fill-opacity="0.4"/>
</svg>
