<svg width="20" height="17" viewBox="0 0 20 17" fill="none" xmlns="http://www.w3.org/2000/svg">
<path d="M19.9619 2.02456C19.2133 2.36871 18.4205 2.59598 17.6088 2.69912C18.4644 2.16202 19.105 1.31886 19.4119 0.325766C18.6025 0.816647 17.7217 1.16531 16.8044 1.35786C16.1875 0.668571 15.3704 0.211461 14.4798 0.0574476C13.5891 -0.0965658 12.6748 0.0611273 11.8786 0.506061C11.0824 0.950995 10.4489 1.65829 10.0764 2.51822C9.70381 3.37815 9.61303 4.34263 9.81812 5.26202C6.41 5.09534 3.38875 3.38282 1.36813 0.795729C1.0003 1.44994 0.807922 2.19577 0.81125 2.95469C0.810749 3.6602 0.97684 4.35492 1.29478 4.97716C1.61271 5.5994 2.07265 6.12991 2.63375 6.52157C1.98352 6.50102 1.34744 6.3179 0.77875 5.98755V6.03919C0.778551 7.02946 1.10576 7.98935 1.70491 8.75616C2.30406 9.52298 3.1383 10.0496 4.06625 10.2466C3.71475 10.3449 3.35258 10.3952 2.98875 10.3963C2.72563 10.3963 2.47438 10.3695 2.22375 10.3212C2.48783 11.1733 2.99938 11.9182 3.68719 12.452C4.37501 12.9859 5.20486 13.2822 6.06125 13.2998C4.61026 14.4882 2.81987 15.1329 0.976875 15.1306C0.650441 15.132 0.324226 15.1127 0 15.0731C1.88006 16.3329 4.06648 17.0017 6.29937 17C13.8412 17 17.9625 10.4669 17.9625 4.80905C17.9625 4.62865 17.9625 4.44497 17.9494 4.26065C18.7555 3.65639 19.4503 2.90432 20 2.0409L19.9619 2.02456Z" fill="#4F4F4F"/>
</svg>
